<?xml version="1.0" encoding="utf-8"?>
<!-- Generator: Adobe Illustrator 21.0.0, SVG Export Plug-In . SVG Version: 6.00 Build 0)  -->
<svg version="1.1" id="圖層_1" xmlns="http://www.w3.org/2000/svg" xmlns:xlink="http://www.w3.org/1999/xlink" x="0px" y="0px"
	 viewBox="0 0 1366 768" style="enable-background:new 0 0 1366 768;" xml:space="preserve">
<g>
	<g>
		<path d="M633.8,247.5c26.5-17.2,57.1-35.2,89.3-22.1c27.2,11.1,45.1,37.7,53.3,65c5,16.7,7.2,34,8.6,51.4
			c1.3,16.8,2.3,33.7,3.1,50.5c0.8,16.9,0.4,34.5-6.7,50.2c-6,13.4-16.1,24.7-27.9,33.2c-27.3,19.8-62.9,25.1-95.8,25.9
			c-17.4,0.4-34.5-1.8-50.8-8.2c-15.2-6.1-29.2-15.1-42.4-24.7c-26.2-19.1-55-38.9-65.9-70.9c-5.4-15.9-7.7-32.9-9.1-49.5
			c-1.5-18-1.2-36.3,2.6-54c6.2-28.4,22.6-55.9,49.4-69c15.7-7.7,33.5-9.3,50.8-8.8c8.4,0.2,17.3,0.4,25.5,2.2
			c7.5,1.7,12.5,6.5,18.5,10.8c4.9,3.4,9.8,5.3,15.8,4.5c3.8-0.5,2.2-6.3-1.6-5.8c-7.6,1.1-14-6.4-19.7-10.4
			c-6.8-4.6-14.4-5.7-22.4-6.4c-17.3-1.6-35.1-2-52.2,2.2c-30.5,7.5-52.8,31.3-64.1,59.9c-13.2,33.4-11.1,72.1-4.3,106.7
			c3.3,16.8,9,33.2,19.6,46.9c10.6,13.8,24.8,24.3,38.5,34.9c26.8,20.8,55.3,40.8,90,44.7c18.4,2.1,37.3,0.6,55.6-2
			c17.5-2.5,34.9-7,50.8-15.1c13.5-6.9,25.8-16.6,35-28.7c9.9-13,15.1-28.1,16.6-44.3c1.7-18.2-0.5-36.7-1.5-55
			c-1-18-2.2-36-5.5-53.7c-5.7-30.8-19.3-60.5-45.4-79.2c-11.5-8.2-25.2-13.5-39.4-14.1c-17.3-0.7-33.8,5.7-48.8,13.9
			c-7.7,4.2-15.1,9-22.5,13.7C627.5,244.4,630.5,249.6,633.8,247.5L633.8,247.5z"/>
	</g>
</g>
<g>
	<g>
		<path d="M643.5,233c-0.9-11-2.8-21.8-6-32.3c-1.6-5.1-3.4-10.1-5.5-15c-1.1-2.5-2.2-4.9-3.3-7.3c-0.9-1.8-1.9-2.6-0.9-4.5
			c1-1.8,2.4-1.9,4.3-2.4c2.5-0.7,6.9-2.5,8.5,0c1.2,1.9,1.1,5.7,1.5,7.9c1,6.2,1.6,12.5,1.8,18.8c0.4,12.6-0.7,25.1-3.2,37.3
			c-0.8,3.8,5,5.4,5.8,1.6c3.1-15,4.2-30.2,3.1-45.5c-0.5-7.1-1.2-14.8-3.2-21.7c-1.5-5.4-5.3-6.2-10.4-5.4
			c-4.5,0.7-13,1.8-15.1,6.6c-2.2,5,3.7,12.4,5.6,16.7c6.1,14.3,9.8,29.6,11,45.1C637.8,236.9,643.8,236.9,643.5,233L643.5,233z"/>
	</g>
</g>
<g>
	<g>
		<path d="M728.3,296.6c7.2,0.1,14.4-0.4,21.5-1.3c3.8-0.5,3.9-5.6,0-6c-6.3-0.6-12.7-1.2-19-1.7c-3.4-0.3-4,5.1-0.8,5.9
			c2.6,0.7,5.1,1.3,7.7,2c1.6,0.4,6.5,0.8,7.7,2c0.1-1-0.5-1.3-1.7-0.7c-1.1-0.1-2.2-0.2-3.3-0.3c-2.2-0.2-4.4-0.4-6.7-0.5
			c-3.8-0.3-3.8,5.7,0,6c2.9,0.2,5.8,0.5,8.7,0.7c3.5,0.3,3.9-4.9,0.8-5.9c-4.3-1.3-8.6-2.7-12.9-4c-0.3,2-0.5,3.9-0.8,5.9
			c6.4,0.5,12.9,1.1,19.3,1.6c3.4,0.3,4.1-5.1,0.8-5.9c-4.3-1-7.9-2.7-11.4-5.3c-0.5,1.9-1,3.7-1.5,5.6c5.6-0.1,11.1,0.3,16.6,1.2
			c0-1.9,0-3.9,0-5.8c-5.2,1.6-10.4,2.4-15.8,2.4c-2.9,0-4.2,4.1-1.5,5.6c4.5,2.5,9.1,4.3,14.1,5.4c3.8,0.8,5.4-5,1.6-5.8
			c-4.5-1-8.6-2.5-12.6-4.7c-0.5,1.9-1,3.7-1.5,5.6c6,0,11.7-0.9,17.4-2.6c2.6-0.8,3.1-5.3,0-5.8c-6-1-12.1-1.5-18.2-1.4
			c-3.2,0-3.8,3.9-1.5,5.6c3.9,2.9,8.1,4.8,12.9,5.9c0.3-2,0.5-3.9,0.8-5.9c-6.4-0.5-12.9-1.1-19.3-1.6c-3.5-0.3-3.9,4.9-0.8,5.9
			c4.3,1.3,8.6,2.7,12.9,4c0.3-2,0.5-3.9,0.8-5.9c-2.9-0.2-5.8-0.5-8.7-0.7c0,2,0,4,0,6c4.6,0.4,17.4,3.4,18.4-4.2
			c0.4-2.7-1.6-4.7-4-5.7c-5.1-2.1-11.1-3-16.4-4.4c-0.3,2-0.5,3.9-0.8,5.9c6.3,0.6,12.7,1.2,19,1.7c0-2,0-4,0-6
			c-7.2,0.9-14.3,1.4-21.5,1.3C724.4,290.6,724.4,296.6,728.3,296.6L728.3,296.6z"/>
	</g>
</g>
<g>
	<g>
		<path d="M663.8,299.9c5.3-0.2,10.6-0.3,16-0.5c-0.3-2-0.5-3.9-0.8-5.9c-7,1.8-14.1,3.6-21.1,5.4c-2.8,0.7-2.9,5.1,0,5.8
			c7.3,1.8,14.6,1.9,21.9,0.2c3.4-0.7,2.5-5.8-0.8-5.9c-8-0.1-15.9,1.1-23.5,3.6c-3.2,1.1-2.7,5.8,0.8,5.9
			c9.9,0.3,19.6-1.5,28.7-5.4c2.6-1.1,3-4.8,0-5.8c-4.4-1.4-8.7-1.6-13.2-0.6c-3.8,0.8-2.2,6.6,1.6,5.8c3.5-0.7,6.6-0.5,10,0.6
			c0-1.9,0-3.9,0-5.8c-8.7,3.7-17.7,5.4-27.1,5.1c0.3,2,0.5,3.9,0.8,5.9c7.2-2.4,14.4-3.5,21.9-3.4c-0.3-2-0.5-3.9-0.8-5.9
			c-6.3,1.4-12.5,1.3-18.7-0.2c0,1.9,0,3.9,0,5.8c7-1.8,14.1-3.6,21.1-5.4c3.3-0.8,2.6-6-0.8-5.9c-5.3,0.2-10.6,0.3-16,0.5
			C659.9,294,659.9,300,663.8,299.9L663.8,299.9z"/>
	</g>
</g>
<g>
	<g>
		<path d="M706.8,313.1c2-6.4,10.3-5.6,11.7,0.7c0.8,3.8,6.6,2.2,5.8-1.6c-2.8-12.3-19.7-12.5-23.3-0.7
			C699.9,315.2,705.7,316.8,706.8,313.1L706.8,313.1z"/>
	</g>
</g>
<g>
	<g>
		<path d="M697.4,334.8c9.6-1.6,19.1-3.6,28.8-4.4c5.3-0.4,10.7-0.6,15.9,0.2c1.7,0.3,5.8,0.5,7.1,1.7c2.2,2.1,0.9,5.2-0.5,7.2
			c-6,8.2-17,3.3-21.3-3.9c-1.9-3.3-2.2-9.8-6.9-10.2c-0.9-0.1-2.2,0.6-2.6,1.5c-1.1,2.6-0.5,5.6-0.9,8.4
			c-0.7,4.6-2.1,10.1-5.7,13.4c-2.9,2.6-8.2,1.4-11.7,0.3c-6.4-2-6.9-11.3-1.6-14.9c3.2-2.1,0.2-7.3-3-5.2c-5.5,3.7-8,10.6-6.2,17
			c2.2,7.9,9.5,8.9,16.3,10.1c6.5,1.1,11.2-2.5,14.3-8.2c1.7-3.2,2.7-6.7,3.3-10.2c0.3-1.5,0.5-3,0.6-4.6c0-0.7,0.1-1.4,0-2.1
			c0-0.4,0.3-2.1-0.2-0.9c-0.9,0.5-1.7,1-2.6,1.5c-2.1-0.2-1.4-0.4-0.7,1.6c0.3,0.8,0.5,1.7,0.9,2.6c0.7,1.8,1.7,3.4,2.8,4.9
			c2.7,3.7,6.5,6.8,10.9,8.3c8.6,2.9,19.5-1.5,21.7-10.8c5.8-23.9-49.7-10.8-60.2-9.1C692,329.7,693.6,335.5,697.4,334.8
			L697.4,334.8z"/>
	</g>
</g>
<g>
	<g>
		<path d="M738.2,346.3c-2.8,5-5.2,13.6-10.5,16.5c-6.4,3.6-15-6.6-19.1-10.5c-2.8-2.6-7.1,1.6-4.2,4.2c5.9,5.5,14.7,15.3,23.9,12.6
			c8.2-2.4,11.5-13.1,15.1-19.8C745.2,346,740,342.9,738.2,346.3L738.2,346.3z"/>
	</g>
</g>
</svg>
