<?xml version="1.0" encoding="utf-8"?>
<!-- Generator: Adobe Illustrator 21.0.0, SVG Export Plug-In . SVG Version: 6.00 Build 0)  -->
<svg version="1.1" id="圖層_1" xmlns="http://www.w3.org/2000/svg" xmlns:xlink="http://www.w3.org/1999/xlink" x="0px" y="0px"
	 viewBox="0 0 357 373" style="enable-background:new 0 0 357 373;" xml:space="preserve">
<g>
	<g>
		<path d="M155.4,216.4c-9.5-20.5-17.5-41.6-23.8-63.3c-3-10.4-5.7-21-7.9-31.7c-2.3-11.1-5.1-23.3,2.8-32.9
			c5.6-6.8,14.1-10.7,22.3-13.1c8.5-2.5,18.3-4.5,27-2.5c11.1,2.5,14.9,12.3,15.5,22.7c0.6,10.9-0.1,21.9-0.5,32.8
			c-0.9,26.2-2.7,52.4-5.4,78.5c-0.1,0.8,0.8,1.6,1.5,1.5c12.8-1.2,25.6-2.4,38.4-3.6c6-0.6,12.1-1.3,18.2-1.7
			c3.2-0.2,6.4-0.3,8.8,2.1c3,3,2.5,8.3,1.7,12.2c-4.2,23-27.6,34.5-43.9,48c-8,6.7-15.1,14.4-21.2,22.8c-3.6,5-6.5,14.2-14.4,11
			c-4.6-1.8-9.3-5.7-13.3-8.5c-17-12-31.9-27.2-43.6-44.4c-3.3-4.8-6.3-9.8-9.1-14.8c-2.5-4.6-10.2-16.9-0.2-17.4
			c6.8-0.4,14.3,1.2,21.1,1.8c7.2,0.6,14.4,1.3,21.5,1.9c1.9,0.2,1.9-2.8,0-3c-7.8-0.7-15.7-1.4-23.5-2.1c-6.6-0.6-14.4-2.5-21-1.6
			c-11.1,1.5-4.2,14.9-1.2,20.5c11.7,22,28.2,41.5,47.9,56.8c4.7,3.6,9.5,7.1,14.6,10.2c3.6,2.3,8.9,6.6,13.4,4.9
			c4.4-1.6,6.6-8.2,9.1-11.7c4-5.8,8.6-11.3,13.6-16.4c17.5-17.7,46.8-29.2,52.9-55.7c1.1-4.9,2.1-11.8-1.3-16.1
			c-3.6-4.5-10.1-3.7-15.2-3.3c-17.7,1.6-35.5,3.3-53.2,5c0.5,0.5,1,1,1.5,1.5c2.7-26.8,4.6-53.6,5.5-80.5c0.4-11.7,1.6-24,0-35.6
			c-1.2-8.5-5.2-16.3-13.5-19.6c-8.3-3.4-17.9-2-26.3-0.2c-8.8,1.9-17.7,5-24.8,10.6c-6.3,4.9-10.5,11.8-11.1,19.8
			c-1,12.1,3.5,25.5,6.4,37.1c6.8,27.3,16.4,53.8,28.2,79.3C153.6,219.6,156.2,218.1,155.4,216.4L155.4,216.4z"/>
	</g>
</g>
<g>
	<g>
		<path d="M134,90.5c11.6,0.1,23-1.5,34.1-4.9c-0.4-0.9-0.8-1.8-1.2-2.7c-12.3,6.4-24.6,12.9-37,19.3c-1.3,0.7-0.7,2.8,0.8,2.8
			c15-0.4,29.9-0.8,44.9-1.2c-0.4-0.9-0.7-1.7-1.1-2.6c-12.6,10.4-25.1,20.7-37.7,31.1c-1.1,0.9-0.1,2.5,1.1,2.6
			c14.3,0.4,28.6,0.8,42.9,1.3c-0.4-0.9-0.7-1.7-1.1-2.6c-9.7,10.1-20.8,18.5-33.1,25.1c-1.4,0.7-0.7,2.7,0.8,2.8
			c12.8,0.7,25.7,1.4,38.5,2.1c-0.5-0.4-1-0.7-1.4-1.1c1.3,7.8-12.8,13.6-18,16.8c-6.9,4.2-13.7,8.5-20.6,12.7
			c-1.3,0.8-0.7,2.7,0.8,2.8c12,0.5,24.1,1,36.1,1.5c-0.4-0.9-0.7-1.7-1.1-2.6c-6.7,8.4-15.8,13.8-25,19c-1.3,0.7-0.7,2.8,0.8,2.8
			c30.3-0.8,60.5-2.9,90.6-6.3c-0.5-0.6-1-1.3-1.4-1.9c-3.4,9.9-19.4,10.5-27.9,12.2c-12.3,2.5-24.5,5-36.8,7.5
			c-24.5,5-49,9.9-73.5,14.9c-1.8,0.4-1.2,2.8,0.4,2.9c32.1,2.8,64.3,3.7,96.5,2.5c-0.5-0.4-1-0.7-1.4-1.1
			c2.2,7.6-19.5,11.3-24.3,12.6c-8.4,2.2-16.8,3.9-25.3,5.2c-1.7,0.3-1.2,2.9,0.4,2.9c12.6,0.3,25.2,0.6,37.8,0.9
			c-0.4-0.9-0.7-1.7-1.1-2.6c-6.8,6.9-14.8,12.2-23.9,15.7c-1.8,0.7-1,3.6,0.8,2.9c9.5-3.7,18-9.2,25.2-16.5
			c0.9-0.9,0.2-2.5-1.1-2.6c-12.6-0.3-25.2-0.6-37.8-0.9c0.1,1,0.3,2,0.4,2.9c12.2-1.9,24.2-4.7,36-8.2c5.8-1.8,18.2-4.6,15.7-13.3
			c-0.2-0.6-0.8-1.1-1.4-1.1c-32.2,1.2-64.4,0.3-96.5-2.5c0.1,1,0.3,2,0.4,2.9c27.1-5.5,54.2-11,81.3-16.5c13.2-2.7,26.5-5.3,39.7-8
			c7.7-1.6,16.5-3.9,19.4-12.2c0.3-0.9-0.5-2-1.4-1.9c-30.1,3.4-60.3,5.5-90.6,6.3c0.3,0.9,0.5,1.9,0.8,2.8
			c9.4-5.3,18.8-10.9,25.6-19.4c0.8-1,0.3-2.5-1.1-2.6c-12-0.5-24.1-1-36.1-1.5c0.3,0.9,0.5,1.9,0.8,2.8
			c9.6-5.9,19.2-11.9,28.8-17.8c5.6-3.4,12.4-7.6,11.2-15.1c-0.1-0.7-0.8-1.1-1.4-1.1c-12.8-0.7-25.7-1.4-38.5-2.1
			c0.3,0.9,0.5,1.9,0.8,2.8c12.5-6.7,23.9-15.3,33.7-25.5c0.9-1,0.2-2.5-1.1-2.6c-14.3-0.4-28.6-0.8-42.9-1.3
			c0.4,0.9,0.7,1.7,1.1,2.6c12.6-10.4,25.1-20.7,37.7-31.1c1-0.8,0.2-2.6-1.1-2.6c-15,0.4-29.9,0.8-44.9,1.2
			c0.3,0.9,0.5,1.9,0.8,2.8c12.3-6.4,24.6-12.9,37-19.3c1.5-0.8,0.5-3.2-1.2-2.7c-10.9,3.3-22,4.8-33.3,4.8
			C132.1,87.5,132.1,90.5,134,90.5L134,90.5z"/>
	</g>
</g>
</svg>
