<svg id="Capa_1" enable-background="new 0 0 512 512" height="512" viewBox="0 0 512 512" width="512" xmlns="http://www.w3.org/2000/svg"><g><path d="m450.054 144.012c9.47-73.051-49.367-139.529-123.054-139.01 0-.001-142-.001-142-.001-73.42-.494-132.051 65.398-123.179 138.226l-61.821 64.765v299.01h512v-299.077zm24.366 68.245-68.42 51.669v-39.618c15.278-12.722 27.163-28.797 34.876-46.66zm-289.42-177.256h142c95.184 1.622 128.956 122.781 49 174.393v77.188l-23.116 17.457-42.848-81.037h-125.036c-124.707-5.164-124.664-182.859 0-188.001zm0 218h106.964l36.668 69.352-72.632 54.851-218.523-165.025 33.31-34.896c18.864 44.457 62.956 75.718 114.213 75.718zm-155 224v-232.875l226 170.672 226-170.672v232.875z"/><path d="m260 193.001c36.393 0 66-29.607 66-66h-30c-1.983 47.771-70.035 47.734-72 0h-30c0 36.393 29.607 66 66 66z"/><path d="m195 67.001h30v30h-30z"/><path d="m295 67.001h30v30h-30z"/></g></svg>