<svg id="Layer_1" enable-background="new 0 0 512 512" height="512" viewBox="0 0 512 512" width="512" xmlns="http://www.w3.org/2000/svg"><g><path d="m512 162.638c-16.021 0-29.055-13.034-29.055-29.055v-24.858c0-42.894-34.896-77.791-77.791-77.791-26.683 0-50.742 13.296-64.918 34.898-21.682-9.835-45.742-15.316-71.059-15.316h-26.387c-25.308 0-49.36 5.477-71.035 15.305-14.177-21.595-38.234-34.887-64.91-34.887-42.894 0-77.791 34.896-77.791 77.791v24.858c0 16.021-13.034 29.055-29.055 29.055v30h72.903c-1.768 9.89-2.692 20.068-2.692 30.458v22.139h-11.645c-27.387 0-49.668 22.281-49.668 49.669 0 27.387 22.281 49.668 49.668 49.668h15.454c16.638 77.895 85.986 136.492 168.772 136.492h26.387c82.787 0 152.134-58.598 168.773-136.492h15.454c27.387 0 49.668-22.281 49.668-49.669 0-27.387-22.281-49.668-49.668-49.668h-11.646v-22.139c0-10.39-.924-20.569-2.692-30.458h72.933zm-242.822-82.121c73.553 0 134.272 55.985 141.792 127.58h-10.137c-44.027 0-79.845-35.818-79.845-79.846h-30c0 44.027-35.818 79.846-79.846 79.846h-110.142c7.52-71.595 68.238-127.58 141.791-127.58zm-217.777 82.121c4.872-8.584 7.654-18.5 7.654-29.055v-24.858c0-26.352 21.439-47.791 47.791-47.791 15.654 0 29.841 7.452 38.673 19.685-29.091 19.923-51.795 48.513-64.369 82.019zm7.164 151.935c-10.845 0-19.668-8.823-19.668-19.669 0-10.845 8.823-19.668 19.668-19.668h11.646v33.25c0 2.039.049 4.066.119 6.088h-11.765zm210.613 136.492h-26.387c-78.619 0-142.58-63.961-142.58-142.58v-70.389h110.931c40.392 0 75.763-21.916 94.846-54.479 19.083 32.563 54.454 54.479 94.845 54.479h10.925v70.389c0 78.619-63.961 142.58-142.58 142.58zm184.226-175.829c10.845 0 19.668 8.823 19.668 19.669 0 10.845-8.823 19.668-19.668 19.668h-11.766c.07-2.022.119-4.049.119-6.088v-33.25h11.647zm-22.585-112.598c-12.57-33.499-35.267-62.082-64.348-82.005 8.831-12.241 23.023-19.699 38.684-19.699 26.352 0 47.79 21.439 47.79 47.791v24.858c0 10.556 2.782 20.471 7.654 29.055z"/><path d="m175.734 270.791h30v30.002h-30z"/><path d="m306.234 270.791h30v30.002h-30z"/><path d="m256 382.085c-17.645 0-32-14.355-32-32h-30c0 34.187 27.813 62 62 62s62-27.813 62-62h-30c0 17.645-14.355 32-32 32z"/></g></svg>